<svg width="207" height="60" viewBox="0 0 207 60" fill="none" xmlns="http://www.w3.org/2000/svg">
<g id="Group 402">
<path id="Vector" d="M29.5 0.648315C25.6261 0.648315 21.7899 1.41599 18.2108 2.90724C14.6317 4.39867 11.3797 6.5845 8.6403 9.34012C5.90101 12.0959 3.72813 15.3672 2.24554 18.9676C0.763123 22.5681 0 26.4271 0 30.3242C0 34.2212 0.763123 38.0803 2.24554 41.6807C3.72813 45.2811 5.90101 48.5524 8.6403 51.3082C11.3797 54.0638 14.6317 56.2497 18.2108 57.7411C21.7899 59.2324 25.6261 60 29.5 60V45.1621C27.5629 45.1621 25.6449 44.7783 23.8554 44.0326C22.0658 43.2869 20.4398 42.194 19.0702 40.8162C17.7005 39.4384 16.6141 37.8027 15.8729 36.0024C15.1315 34.2022 14.75 32.2728 14.75 30.3242C14.75 28.3756 15.1315 26.4461 15.8729 24.6459C16.6141 22.8457 17.7005 21.21 19.0702 19.8321C20.4398 18.4543 22.0658 17.3614 23.8554 16.6158C25.6449 15.87 27.5629 15.4862 29.5 15.4862V0.648315Z" fill="#0F52FF"/>
<path id="Vector_2" d="M29.5 40.2161C34.9308 40.2161 39.3333 35.7873 39.3333 30.3241C39.3333 24.861 34.9308 20.4322 29.5 20.4322C24.0692 20.4322 19.6667 24.861 19.6667 30.3241C19.6667 35.7873 24.0692 40.2161 29.5 40.2161Z" fill="#0F52FF"/>
<path id="Vector_3" d="M0 30.3242C0 34.2212 0.763123 38.0802 2.24554 41.6807C3.72813 45.2811 5.90101 48.5524 8.6403 51.3082C11.3797 54.0638 14.6317 56.2497 18.2108 57.7411C21.7899 59.2323 25.6261 60 29.5 60C33.3739 60 37.2101 59.2323 40.7892 57.7411C44.3683 56.2497 47.6202 54.0638 50.3597 51.3082C53.099 48.5524 55.2719 45.2811 56.7545 41.6807C58.2369 38.0802 59 34.2212 59 30.3242H44.25C44.25 32.2728 43.8685 34.2022 43.1271 36.0024C42.3859 37.8026 41.2995 39.4384 39.9298 40.8162C38.5602 42.194 36.9342 43.2869 35.1446 44.0325C33.3551 44.7783 31.4371 45.1621 29.5 45.1621C27.5629 45.1621 25.6449 44.7783 23.8554 44.0325C22.0658 43.2869 20.4398 42.194 19.0702 40.8162C17.7005 39.4384 16.6141 37.8026 15.8729 36.0024C15.1315 34.2022 14.75 32.2728 14.75 30.3242H0Z" fill="#5BD0F4"/>
<path id="Vector_4" d="M39.3334 30.3243C39.3334 27.7007 38.2974 25.1847 36.4533 23.3296C34.6092 21.4744 32.1081 20.4322 29.5001 20.4322C26.8921 20.4322 24.3911 21.4744 22.5469 23.3296C20.7027 25.1847 19.6667 27.7007 19.6667 30.3243H29.5001H39.3334Z" fill="#5BD0F4"/>
<path id="Vector_5" d="M74.4066 19.1744H70.7427V39.6508H74.4066V19.1744Z" fill="#0F52FF"/>
<path id="Vector_6" d="M76.7992 32.3969C76.7992 37.1357 80.056 40.0609 84.3597 40.0609C88.6633 40.0609 91.9201 37.1357 91.9201 32.3969C91.9201 27.6581 88.6633 24.7329 84.3597 24.7329C80.056 24.7329 76.7992 27.6581 76.7992 32.3969ZM80.4631 32.3969C80.4631 29.5887 82.0915 27.9506 84.3597 27.9506C86.6278 27.9506 88.2562 29.5887 88.2562 32.3969C88.2562 35.2051 86.6278 36.8432 84.3597 36.8432C82.0915 36.8432 80.4631 35.2051 80.4631 32.3969Z" fill="#0F52FF"/>
<path id="Vector_7" d="M105.013 25.1424V27.1022H104.722C103.85 25.8445 102.454 24.7329 99.9533 24.7329C96.5221 24.7329 93.4397 27.6581 93.4397 32.1629C93.4397 36.6677 96.5221 39.5929 99.9533 39.5929C102.454 39.5929 103.85 38.4519 104.664 37.3112H104.955V38.7153C104.955 41.5235 103.326 42.8106 100.942 42.8106C98.5575 42.8106 97.3362 41.5235 96.8418 39.856L93.556 41.2895C94.3121 43.4833 96.522 45.9113 101 45.9113C105.595 45.9113 108.619 43.4833 108.619 38.803V25.1424H105.013ZM101.058 36.4336C98.7902 36.4336 97.1036 34.7955 97.1036 32.1629C97.1036 29.5302 98.7902 27.8921 101.058 27.8921C103.326 27.8921 105.013 29.5302 105.013 32.1629C105.013 34.7955 103.326 36.4336 101.058 36.4336Z" fill="#0F52FF"/>
<path id="Vector_8" d="M110.989 32.3969C110.989 37.1357 114.246 40.0609 118.55 40.0609C122.853 40.0609 126.11 37.1357 126.11 32.3969C126.11 27.6581 122.853 24.7329 118.55 24.7329C114.246 24.7329 110.989 27.6581 110.989 32.3969ZM114.653 32.3969C114.653 29.5887 116.282 27.9506 118.55 27.9506C120.818 27.9506 122.446 29.5887 122.446 32.3969C122.446 35.2051 120.818 36.8432 118.55 36.8432C116.282 36.8432 114.653 35.2051 114.653 32.3969Z" fill="#0F52FF"/>
<path id="Vector_9" d="M128.986 20.9295C128.986 22.4215 130.12 23.4452 131.575 23.4452C133.028 23.4452 134.163 22.4215 134.163 20.9295C134.163 19.4378 133.028 18.4139 131.575 18.4139C130.12 18.4139 128.986 19.4378 128.986 20.9295ZM133.406 25.1418H129.743V39.6508H133.406V25.1418Z" fill="#5BD0F4"/>
<path id="Vector_10" d="M136.671 45.5017H140.336V37.7792H140.626C141.44 38.9493 142.836 40.0609 145.337 40.0609C148.768 40.0609 151.851 37.1357 151.851 32.3969C151.851 27.6581 148.768 24.7329 145.337 24.7329C142.836 24.7329 141.44 25.8445 140.568 27.1024H140.277V25.1424H136.671V45.5017ZM144.231 36.9017C141.964 36.9017 140.277 35.2636 140.277 32.3969C140.277 29.5302 141.964 27.8921 144.231 27.8921C146.5 27.8921 148.186 29.5302 148.186 32.3969C148.186 35.2636 146.5 36.9017 144.231 36.9017Z" fill="#5BD0F4"/>
<path id="Vector_11" d="M153.989 29.2085C153.989 32.0752 156.372 33.1283 159.396 33.7133L160.153 33.8595C161.955 34.2105 162.769 34.6494 162.769 35.5854C162.769 36.5215 161.955 37.2527 160.27 37.2527C158.582 37.2527 157.217 36.5507 156.837 34.4445L153.464 35.3221C153.96 38.3643 156.489 40.0609 160.27 40.0609C163.933 40.0609 166.318 38.3351 166.318 35.2929C166.318 32.2505 163.875 31.4317 160.619 30.7881L159.862 30.6418C158.35 30.3492 157.535 29.9397 157.535 28.9745C157.535 28.0969 158.292 27.5411 159.688 27.5411C161.084 27.5411 162.072 28.1261 162.421 29.7057L165.736 28.682C165.038 26.3418 162.916 24.7329 159.688 24.7329C156.256 24.7329 153.989 26.3418 153.989 29.2085Z" fill="#5BD0F4"/>
<path id="Vector_12" d="M182.775 39.6508V25.1418H179.112V32.6303C179.112 35.3215 177.804 36.9011 175.564 36.9011C173.586 36.9011 172.482 35.8188 172.482 33.6249V25.1418H168.817V33.8004C168.817 37.3985 171.058 39.8848 174.431 39.8848C177.076 39.8848 178.298 38.7147 178.879 37.4861H179.169V39.6508H182.775Z" fill="#5BD0F4"/>
<path id="Vector_13" d="M186.025 25.1421V39.651H189.69V30.9925C189.69 29.0033 190.621 27.8917 192.306 27.8917C193.761 27.8917 194.633 28.7108 194.633 30.2904V39.651H198.297V30.9925C198.297 29.0033 199.228 27.8917 200.914 27.8917C202.368 27.8917 203.24 28.7108 203.24 30.2904V39.651H206.905V30.1149C206.905 26.6047 204.752 24.9081 202.077 24.9081C199.722 24.9081 198.646 25.9611 197.948 27.1897H197.657C196.988 25.8149 195.796 24.9081 193.702 24.9081C191.609 24.9081 190.474 25.8441 189.923 26.9557H189.631V25.1421H186.025Z" fill="#5BD0F4"/>
</g>
</svg>
