<svg width="218" height="60" viewBox="0 0 218 60" fill="none" xmlns="http://www.w3.org/2000/svg">
<g id="Group 400">
<path id="Vector" d="M17.9567 57.2863L11.9975 46.903L20.743 31.7068L26.3004 41.3907L59.1069 41.3729L49.7979 57.4296L17.9567 57.2863Z" fill="#FFAD64"/>
<path id="Vector_2" d="M64.9648 31.0631L59.0056 41.4463L41.5506 41.4256L47.1086 31.742L30.6901 3.17023L49.1677 3.25178L64.9648 31.0631Z" fill="#ADD4D3"/>
<path id="Vector_3" d="M18.8748 3.1142H30.7932L39.5028 18.3314L28.3871 18.3309L11.9993 46.9205L2.83063 30.7823L18.8748 3.1142Z" fill="#FB8351"/>
<path id="Vector_4" fill-rule="evenodd" clip-rule="evenodd" d="M32.2463 0.71034L32.2108 0.648315H17.4668L0 30.77L11.99 51.8742L12.0047 51.8486L16.5374 59.7463L51.2023 59.9024L63.3759 38.9045H63.2949L67.792 31.069L50.5939 0.791317L32.2463 0.71034ZM43.6518 20.7979H43.7437L35.0767 5.65538L47.7413 5.71123L62.1375 31.0562L57.6314 38.9077L45.8226 38.914L49.9399 31.7407L43.6518 20.7979ZM29.2438 5.58072L35.1536 15.8652L26.9712 15.8649L12.9627 40.3033L12.0072 41.9637L5.6619 30.7951L20.2831 5.58072H29.2438ZM23.5619 31.6865L29.8037 20.7975L37.9881 20.7978L44.2772 31.7421L40.159 38.9172L27.7154 38.9239L23.5619 31.6865ZM14.8338 46.9131L17.2085 42.7705L20.7398 36.6345L24.8853 43.8579L37.327 43.8512L37.3069 43.8862L54.7996 43.907L48.3932 54.9572L19.3756 54.8265L14.8338 46.9131Z" fill="#333237"/>
<path id="Vector_5" d="M82.0712 51.322V39.776H77.8291V38.4798H87.9389V39.776H83.6967V51.322H82.0712Z" fill="white"/>
<path id="Vector_6" d="M92.4557 51.522C90.7773 51.522 89.5219 51.1165 88.6893 50.3056C87.8567 49.4947 87.4405 48.245 87.4405 46.5565C87.4405 45.0411 87.7973 43.8513 88.5109 42.9871C89.2377 42.1097 90.3809 41.6709 91.9403 41.6709C92.8653 41.6709 93.6252 41.8438 94.2199 42.1895C94.8278 42.5218 95.2772 42.9871 95.568 43.5854C95.8718 44.1703 96.0238 44.8351 96.0238 45.5795V47.3542H89.066C89.1188 48.0721 89.2708 48.6371 89.5218 49.0493C89.7862 49.4614 90.176 49.7604 90.6915 49.9466C91.22 50.1194 91.9139 50.2058 92.7728 50.2058C93.7375 50.2058 94.623 50.0397 95.4291 49.7073V50.9835C95.0195 51.1564 94.5569 51.2894 94.0415 51.3824C93.5393 51.4754 93.0108 51.522 92.4557 51.522ZM89.066 46.1778H94.5767V45.4C94.5767 44.6289 94.3719 44.0373 93.9622 43.6253C93.5658 43.1999 92.905 42.9871 91.9799 42.9871C90.8566 42.9871 90.0902 43.253 89.6804 43.7848C89.2708 44.3165 89.066 45.1142 89.066 46.1778Z" fill="white"/>
<path id="Vector_7" d="M102.847 51.522C101.208 51.522 99.992 51.0965 99.1992 50.2457C98.4062 49.3817 98.0097 48.1652 98.0097 46.5964C98.0097 44.9347 98.459 43.6984 99.3577 42.8874C100.256 42.0765 101.466 41.6709 102.985 41.6709C103.607 41.6709 104.122 41.7174 104.532 41.8106C104.941 41.8903 105.338 42.0233 105.721 42.2093V43.5055C105.007 43.16 104.195 42.9871 103.283 42.9871C102.12 42.9871 101.221 43.2663 100.587 43.8247C99.9523 44.3697 99.6352 45.2936 99.6352 46.5964C99.6352 47.8461 99.9128 48.7634 100.468 49.3484C101.023 49.9201 101.941 50.2058 103.223 50.2058C104.135 50.2058 104.974 50.0331 105.741 49.6873V51.0035C105.331 51.1764 104.888 51.3026 104.413 51.3824C103.95 51.4754 103.428 51.522 102.847 51.522Z" fill="white"/>
<path id="Vector_8" d="M107.563 51.322V37.8816H109.188V42.8869C109.625 42.528 110.133 42.2355 110.715 42.0095C111.31 41.7834 111.997 41.6704 112.776 41.6704C113.913 41.6704 114.765 41.9496 115.334 42.508C115.902 43.0664 116.186 43.9438 116.186 45.1402V51.322H114.561V45.2001C114.561 44.3758 114.376 43.8042 114.006 43.485C113.649 43.1528 113.054 42.9865 112.221 42.9865C111.693 42.9865 111.144 43.1061 110.576 43.3455C110.021 43.5715 109.559 43.8707 109.188 44.2428V51.322H107.563Z" fill="white"/>
<path id="Vector_9" d="M122.669 51.5218C121.347 51.5218 120.29 51.2294 119.497 50.6443C118.704 50.0594 118.308 49.275 118.308 48.2912C118.308 47.3873 118.585 46.6095 119.14 45.9581C119.695 45.3067 120.455 44.7284 121.42 44.2233C120.904 43.7048 120.468 43.2195 120.112 42.7676C119.755 42.3156 119.576 41.7704 119.576 41.1324C119.576 40.3347 119.847 39.6633 120.389 39.1183C120.944 38.5599 121.724 38.2808 122.728 38.2808C123.706 38.2808 124.466 38.54 125.008 39.0584C125.549 39.5769 125.821 40.2682 125.821 41.1324C125.821 41.8503 125.629 42.4551 125.245 42.947C124.862 43.4389 124.314 43.9374 123.6 44.4427L126.891 47.8127C127.115 47.3208 127.228 46.696 127.228 45.9382V45.659H128.517V45.9382C128.517 46.4568 128.457 46.9619 128.338 47.4537C128.22 47.9456 128.047 48.3711 127.823 48.73L129.607 50.5446L128.615 51.442L127.029 49.8667C126.567 50.4383 125.966 50.8571 125.226 51.123C124.486 51.3889 123.633 51.5218 122.669 51.5218ZM122.589 43.645C123.211 43.2595 123.68 42.8939 123.997 42.5482C124.314 42.1892 124.473 41.7373 124.473 41.1923C124.473 40.687 124.334 40.2882 124.056 39.9957C123.792 39.69 123.349 39.5371 122.728 39.5371C122.094 39.5371 121.631 39.6966 121.341 40.0157C121.063 40.3347 120.924 40.7269 120.924 41.1923C120.924 41.6177 121.07 42.0098 121.36 42.3687C121.664 42.7277 122.074 43.1531 122.589 43.645ZM122.669 50.3452C123.435 50.3452 124.089 50.2322 124.631 50.0062C125.186 49.7669 125.655 49.4147 126.039 48.9494L122.411 45.2203C121.552 45.6191 120.911 46.0511 120.488 46.5165C120.079 46.9685 119.874 47.5468 119.874 48.2514C119.874 48.9426 120.138 49.4678 120.667 49.8268C121.195 50.1723 121.863 50.3452 122.669 50.3452Z" fill="#FB8351"/>
<path id="Vector_10" d="M78.4695 29.1582V11.3768H83.6296V25.1822H91.5893V29.1582H78.4695Z" fill="#FB8351"/>
<path id="Vector_11" d="M99.8905 29.4345C97.2922 29.4345 95.3709 28.8546 94.1266 27.695C92.9007 26.5353 92.2877 24.8418 92.2877 22.6145C92.2877 20.4058 92.9099 18.7215 94.1541 17.5618C95.3984 16.3838 97.3105 15.7947 99.8905 15.7947C102.489 15.7947 104.41 16.3838 105.654 17.5618C106.917 18.7215 107.548 20.4058 107.548 22.6145C107.548 24.8418 106.926 26.5353 105.682 27.695C104.438 28.8546 102.507 29.4345 99.8905 29.4345ZM99.8905 25.6517C100.732 25.6517 101.336 25.4125 101.702 24.9339C102.086 24.4553 102.278 23.6822 102.278 22.6145C102.278 21.5654 102.086 20.8015 101.702 20.3229C101.336 19.8259 100.732 19.5773 99.8905 19.5773C99.0672 19.5773 98.4724 19.8259 98.1065 20.3229C97.7405 20.8015 97.5576 21.5654 97.5576 22.6145C97.5576 23.6822 97.7405 24.4553 98.1065 24.9339C98.4724 25.4125 99.0672 25.6517 99.8905 25.6517Z" fill="#FB8351"/>
<path id="Vector_12" d="M115.191 34.0179C114.55 34.0179 113.855 33.9903 113.105 33.9351C112.354 33.8983 111.641 33.8246 110.964 33.7142C110.305 33.6038 109.756 33.4749 109.317 33.3276V30.0143C109.811 30.18 110.378 30.3181 111.019 30.4285C111.677 30.5389 112.345 30.6218 113.022 30.677C113.699 30.7322 114.321 30.7599 114.889 30.7599C115.859 30.7599 116.618 30.7046 117.167 30.5942C117.734 30.5022 118.018 30.3273 118.018 30.0696C118.018 29.8487 117.926 29.7014 117.743 29.6278C117.56 29.5725 117.213 29.5449 116.7 29.5449H113.269C111.934 29.5449 110.9 29.3333 110.168 28.9099C109.454 28.4681 109.097 27.8147 109.097 26.9495C109.097 25.7346 109.765 24.8879 111.101 24.4094C110.351 24.0227 109.802 23.535 109.454 22.9459C109.107 22.357 108.933 21.6114 108.933 20.7094C108.933 19.0159 109.5 17.7734 110.634 16.9819C111.787 16.1905 113.443 15.7947 115.602 15.7947C116.06 15.7947 116.572 15.8314 117.139 15.9051C117.707 15.9604 118.118 16.0156 118.375 16.0708H123.48L123.37 19.2184H121.641C121.97 19.6418 122.135 20.1572 122.135 20.7647C122.135 22.1084 121.741 23.1761 120.955 23.9676C120.186 24.7406 118.969 25.1273 117.304 25.1273C117.066 25.1273 116.81 25.1181 116.536 25.0995C116.261 25.0628 116.005 25.0352 115.767 25.0167C115.364 25.0536 115.017 25.1273 114.724 25.2377C114.431 25.3481 114.285 25.5321 114.285 25.7899C114.285 25.9739 114.367 26.1029 114.532 26.1764C114.697 26.2316 114.925 26.2592 115.218 26.2592H118.21C119.546 26.2592 120.598 26.5722 121.366 27.198C122.135 27.8239 122.519 28.7442 122.519 29.9592C122.519 31.2476 121.924 32.2416 120.735 32.9411C119.546 33.659 117.698 34.0179 115.191 34.0179ZM115.63 22.2833C116.435 22.2833 116.993 22.1452 117.304 21.8691C117.615 21.593 117.771 21.1328 117.771 20.4886C117.771 19.8442 117.615 19.3749 117.304 19.0804C116.993 18.7859 116.435 18.6386 115.63 18.6386C114.88 18.6386 114.331 18.7859 113.983 19.0804C113.654 19.3565 113.489 19.8259 113.489 20.4886C113.489 21.1144 113.644 21.5746 113.955 21.8691C114.285 22.1452 114.843 22.2833 115.63 22.2833Z" fill="#FB8351"/>
<path id="Vector_13" d="M131.895 29.4345C129.296 29.4345 127.375 28.8546 126.131 27.695C124.905 26.5353 124.292 24.8418 124.292 22.6145C124.292 20.4058 124.914 18.7215 126.158 17.5618C127.402 16.3838 129.315 15.7947 131.895 15.7947C134.493 15.7947 136.414 16.3838 137.658 17.5618C138.922 18.7215 139.552 20.4058 139.552 22.6145C139.552 24.8418 138.93 26.5353 137.686 27.695C136.441 28.8546 134.511 29.4345 131.895 29.4345ZM131.895 25.6517C132.736 25.6517 133.34 25.4125 133.706 24.9339C134.09 24.4553 134.283 23.6822 134.283 22.6145C134.283 21.5654 134.09 20.8015 133.706 20.3229C133.34 19.8259 132.736 19.5773 131.895 19.5773C131.072 19.5773 130.476 19.8259 130.11 20.3229C129.744 20.8015 129.562 21.5654 129.562 22.6145C129.562 23.6822 129.744 24.4553 130.11 24.9339C130.476 25.4125 131.072 25.6517 131.895 25.6517Z" fill="#FB8351"/>
<path id="Vector_14" d="M141.82 14.3307V10.5757H147.392V14.3307H141.82ZM142.231 29.1578V19.853H140.339L140.777 16.0703H147.392V29.1578H142.231Z" fill="white"/>
<path id="Vector_15" d="M149.867 35.1223V16.0708H154.342L154.588 17.1199C155.118 16.6966 155.695 16.3744 156.317 16.1536C156.958 15.9143 157.698 15.7947 158.541 15.7947C160.48 15.7947 161.972 16.2916 163.015 17.2856C164.075 18.2612 164.606 19.9271 164.606 22.2832C164.606 24.621 164.048 26.3972 162.932 27.6121C161.816 28.8271 160.279 29.4344 158.321 29.4344C157.022 29.4344 155.924 29.186 155.027 28.6889V35.1223H149.867ZM157.003 25.6517C157.754 25.6517 158.331 25.3848 158.733 24.851C159.136 24.3172 159.337 23.4889 159.337 22.366C159.337 21.28 159.144 20.5437 158.76 20.1572C158.394 19.7706 157.827 19.5773 157.058 19.5773C156.29 19.5773 155.613 19.835 155.027 20.3505V24.9891C155.321 25.21 155.613 25.3756 155.906 25.4861C156.198 25.5965 156.564 25.6517 157.003 25.6517Z" fill="white"/>
<path id="Vector_16" d="M171.483 29.4344C170.367 29.4344 169.315 29.3517 168.327 29.186C167.357 29.0387 166.589 28.8454 166.021 28.6061V24.8786C166.661 25.1732 167.421 25.4032 168.299 25.5689C169.196 25.7346 169.956 25.8174 170.576 25.8174C171.236 25.8174 171.73 25.799 172.059 25.7621C172.408 25.7254 172.58 25.5689 172.58 25.2928C172.58 24.9799 172.279 24.7406 171.675 24.5749C171.072 24.4092 170.312 24.1699 169.398 23.857C168.207 23.4336 167.319 22.9367 166.734 22.366C166.149 21.7954 165.857 20.9671 165.857 19.881C165.857 18.5742 166.369 17.571 167.394 16.8715C168.418 16.1536 170.028 15.7947 172.223 15.7947C173.066 15.7947 173.935 15.859 174.831 15.9879C175.727 16.1167 176.432 16.264 176.945 16.4297V20.0744C176.395 19.835 175.792 19.6602 175.134 19.5498C174.493 19.4392 173.908 19.3841 173.377 19.3841C172.792 19.3841 172.269 19.4116 171.812 19.4669C171.354 19.5221 171.126 19.6785 171.126 19.9363C171.126 20.2307 171.383 20.4425 171.895 20.5713C172.425 20.7002 173.13 20.9027 174.008 21.1788C174.997 21.4732 175.764 21.7954 176.314 22.1452C176.881 22.4949 177.275 22.9182 177.494 23.4153C177.731 23.9123 177.851 24.5288 177.851 25.2652C177.851 26.5906 177.31 27.6213 176.231 28.3576C175.169 29.0754 173.586 29.4344 171.483 29.4344Z" fill="white"/>
<path id="Vector_17" d="M184.501 29.434C182.982 29.434 181.793 29.0015 180.933 28.1363C180.074 27.2711 179.644 26.0011 179.644 24.326V16.0703H184.803V23.9119C184.803 25.053 185.38 25.6237 186.532 25.6237C186.953 25.6237 187.365 25.5317 187.768 25.3476C188.17 25.1636 188.49 24.9334 188.728 24.6573V16.0703H193.888V29.1579H189.058L188.921 28.1639C188.409 28.532 187.776 28.8358 187.027 29.075C186.295 29.3144 185.453 29.434 184.501 29.434Z" fill="white"/>
<path id="Vector_18" d="M196.346 29.1583V16.0708H201.121L201.258 17.1199C201.826 16.7334 202.457 16.4205 203.152 16.1812C203.866 15.9235 204.644 15.7947 205.486 15.7947C206.326 15.7947 206.986 15.9143 207.461 16.1536C207.938 16.3928 208.322 16.7426 208.614 17.2027C209.199 16.7795 209.859 16.4389 210.591 16.1812C211.34 15.9235 212.219 15.7947 213.226 15.7947C214.744 15.7947 215.86 16.1996 216.574 17.0095C217.288 17.801 217.644 19.0159 217.644 20.6541V29.1583H212.566V21.2616C212.566 20.6725 212.448 20.2585 212.21 20.0191C211.973 19.7614 211.579 19.6326 211.029 19.6326C210.316 19.6326 209.73 19.8903 209.274 20.4056C209.309 20.645 209.328 20.8751 209.328 21.0959C209.328 21.2984 209.328 21.5285 209.328 21.7862V29.1583H204.552V21.1788C204.552 20.645 204.461 20.2585 204.278 20.0191C204.094 19.7614 203.747 19.6326 203.235 19.6326C202.887 19.6326 202.548 19.7246 202.219 19.9087C201.889 20.0928 201.596 20.3136 201.341 20.5713V29.1583H196.346Z" fill="white"/>
<path id="Vector_19" d="M138.011 51.6867C136.636 51.6867 135.493 51.4274 134.581 50.909C133.683 50.3772 133.01 49.6393 132.56 48.6955C132.11 47.7384 131.886 46.6217 131.886 45.3454C131.886 43.9496 132.098 42.7331 132.52 41.6962C132.943 40.6593 133.603 39.8615 134.502 39.3032C135.402 38.7316 136.563 38.4457 137.991 38.4457C138.731 38.4457 139.398 38.4989 139.993 38.6053C140.601 38.7116 141.169 38.8578 141.699 39.044V40.4798C141.169 40.2804 140.608 40.1274 140.013 40.0211C139.418 39.9015 138.791 39.8416 138.131 39.8416C136.98 39.8416 136.068 40.061 135.395 40.4997C134.721 40.9384 134.238 41.5698 133.947 42.3941C133.656 43.2183 133.511 44.2021 133.511 45.3454C133.511 46.9273 133.882 48.1505 134.621 49.0146C135.375 49.8655 136.558 50.2909 138.169 50.2909C138.764 50.2909 139.365 50.2442 139.973 50.1512C140.594 50.0582 141.169 49.912 141.699 49.7126V51.1683C141.182 51.3278 140.621 51.454 140.013 51.5472C139.418 51.6402 138.751 51.6867 138.011 51.6867Z" fill="white"/>
<path id="Vector_20" d="M148.373 51.6862C146.734 51.6862 145.538 51.2674 144.785 50.4299C144.045 49.5791 143.676 48.3559 143.676 46.7607C143.676 45.1786 144.053 43.9622 144.805 43.1114C145.558 42.2606 146.749 41.8351 148.373 41.8351C149.999 41.8351 151.189 42.2606 151.941 43.1114C152.695 43.9622 153.071 45.1786 153.071 46.7607C153.071 48.3559 152.702 49.5791 151.961 50.4299C151.222 51.2674 150.026 51.6862 148.373 51.6862ZM148.373 50.2903C149.496 50.2903 150.29 50.0111 150.752 49.4527C151.215 48.8811 151.446 47.9838 151.446 46.7607C151.446 45.5375 151.209 44.6469 150.732 44.0886C150.27 43.5168 149.483 43.231 148.373 43.231C147.264 43.231 146.47 43.5168 145.995 44.0886C145.533 44.6469 145.301 45.5375 145.301 46.7607C145.301 47.9838 145.533 48.8811 145.995 49.4527C146.457 50.0111 147.25 50.2903 148.373 50.2903Z" fill="white"/>
<path id="Vector_21" d="M155.058 51.4872V50.1113H156.525V51.4872H155.058Z" fill="white"/>
</g>
</svg>
