<svg width="554" height="402" viewBox="0 0 554 402" fill="none" xmlns="http://www.w3.org/2000/svg">
<g clip-path="url(#clip0_2016_181)">
<path d="M199.156 110.677C193.999 116.033 187.788 120.261 180.916 123.096C174.043 125.931 166.657 127.311 159.225 127.149C151.792 126.987 144.474 125.286 137.731 122.154C130.989 119.021 124.969 114.525 120.051 108.95L0 222.591L168.815 400.95L329.726 248.629L199.156 110.677Z" fill="#EDECEC"/>
<path d="M160.3 115.927C166.635 115.935 172.907 114.66 178.737 112.18C184.567 109.701 189.835 106.067 194.224 101.497L160.748 66.1293L124.982 99.9858C129.397 105.002 134.831 109.018 140.921 111.767C147.011 114.516 153.618 115.934 160.3 115.927Z" fill="#EDECEC"/>
<path d="M423.824 167.652C423.836 178.761 421.656 189.763 417.41 200.028C413.165 210.294 406.936 219.621 399.082 227.476C391.227 235.331 381.901 241.56 371.636 245.806C361.371 250.052 350.37 252.231 339.262 252.22C338.78 252.22 338.298 252.215 337.816 252.205C335.787 252.174 333.783 252.072 331.789 251.897C315.446 250.448 299.878 244.276 286.981 234.133C274.084 223.99 264.416 210.314 259.156 194.772C253.895 179.23 253.269 162.493 257.354 146.601C261.439 130.71 270.058 116.349 282.161 105.271C294.263 94.1924 309.327 86.8741 325.517 84.2079C341.706 81.5417 358.321 83.6427 373.337 90.255C388.353 96.8672 401.121 107.705 410.086 121.448C419.05 135.19 423.824 151.244 423.824 167.652Z" fill="#6C63FF"/>
<path opacity="0.1" d="M388.267 137.049C393.568 127.7 397.028 117.421 398.46 106.769C387.213 95.9254 373.182 88.4097 357.923 85.0556C342.665 81.7016 326.775 82.6403 312.018 87.7677C297.26 92.8951 284.212 102.011 274.319 114.103C264.427 126.196 258.078 140.793 255.976 156.274C269.865 169.701 287.946 177.947 307.189 179.63C309.183 179.804 311.187 179.907 313.216 179.938C313.698 179.948 314.18 179.953 314.662 179.953C329.632 179.969 344.338 176.004 357.272 168.465C370.206 160.926 380.903 150.083 388.267 137.049Z" fill="black"/>
<path d="M376.674 250.17H240.862V401.88H376.674V250.17Z" fill="#2F2E41"/>
<path opacity="0.1" d="M420.17 199.224C414.914 211.565 406.801 222.48 396.5 231.07C386.198 239.66 374.004 245.679 360.92 248.632H379.749V400.343H254.484L324.784 278.57L340.892 250.667L342.065 248.632L395.381 156.284L420.17 199.224Z" fill="black"/>
<path d="M412.806 157.309L483.403 279.595L554 401.88H412.806H271.611L342.209 279.595L412.806 157.309Z" fill="#3F3D56"/>
<path d="M554 400.855H18.9483V401.88H554V400.855Z" fill="#2F2E41"/>
<path d="M87.8966 377.653L86.9613 385.449L81.6605 387.943L75.736 386.072L71.6826 387.943L70.4357 380.772L77.6071 372.664L87.8966 377.653Z" fill="#9F616A"/>
<path d="M84.1548 383.578C84.1548 383.578 88.989 377.942 89.0664 380.76C89.1437 383.578 99.7451 393.244 99.7451 393.244C99.7451 393.244 116.271 398.233 103.487 401.352C90.7027 404.47 62.6403 395.427 61.7049 393.556C60.7695 391.685 69.5 377.341 70.4354 378.589C71.3708 379.836 76.0479 384.201 84.1548 383.578Z" fill="#2F2E41"/>
<path d="M96.0034 290.966C96.0034 290.966 97.8743 305.622 96.0034 307.804C94.1326 309.987 95.068 314.353 96.0034 314.976C96.9389 315.6 94.7562 318.095 93.1972 319.342C91.6382 320.589 89.4556 326.202 89.4556 326.202C89.4556 326.202 81.0368 348.341 81.0368 350.524C81.0368 352.707 77.2952 357.384 77.607 358.944C77.9188 360.503 75.4244 365.492 75.7362 366.427C76.048 367.363 71.6827 375.782 72.9299 377.029C74.1771 378.277 91.3264 382.642 90.391 379.836C89.4555 377.029 88.8319 373.599 89.4556 373.599C90.0792 373.599 92.8854 370.169 92.2618 368.922C91.6382 367.675 110.97 334.933 110.97 334.933L96.0034 290.966Z" fill="#2F2E41"/>
<path opacity="0.1" d="M84.1548 383.578C84.1548 383.578 88.989 377.942 89.0664 380.76C89.1437 383.578 99.7451 393.244 99.7451 393.244C99.7451 393.244 116.271 398.233 103.487 401.352C90.7027 404.47 62.6403 395.427 61.7049 393.556C60.7695 391.685 69.5 377.341 70.4354 378.589C71.3708 379.836 76.0479 384.201 84.1548 383.578Z" fill="black"/>
<path opacity="0.1" d="M96.0034 290.966C96.0034 290.966 97.8743 305.622 96.0034 307.804C94.1326 309.987 95.068 314.353 96.0034 314.976C96.9389 315.6 94.7562 318.095 93.1972 319.342C91.6382 320.589 89.4556 326.202 89.4556 326.202C89.4556 326.202 81.0368 348.341 81.0368 350.524C81.0368 352.707 77.2952 357.384 77.607 358.944C77.9188 360.503 75.4244 365.492 75.7362 366.427C76.048 367.363 71.6827 375.782 72.9299 377.029C74.1771 378.277 91.3264 382.642 90.391 379.836C89.4555 377.029 88.8319 373.599 89.4556 373.599C90.0792 373.599 92.8854 370.169 92.2618 368.922C91.6382 367.675 110.97 334.933 110.97 334.933L96.0034 290.966Z" fill="black"/>
<path d="M127.808 373.782L131.237 382.513L129.678 394.674L119.7 394.051L114.088 389.061V378.46L127.808 373.782Z" fill="#9F616A"/>
<path d="M125.937 384.384C125.937 384.384 129.367 373.158 131.237 376.276C132.422 378.279 133.464 380.363 134.355 382.513C134.355 382.513 149.634 392.491 153.687 392.491C157.741 392.491 161.482 397.481 156.182 399.352C150.881 401.222 110.346 403.717 109.723 399.352C109.099 394.986 110.346 380.954 112.217 382.513C114.088 384.072 123.754 387.502 125.937 384.384Z" fill="#2F2E41"/>
<path d="M133.732 246.246C133.732 246.246 147.475 255.586 148.099 256.833C148.722 258.08 156.697 261.915 150.149 265.034C143.601 268.152 126.248 248.429 126.248 248.429L133.732 246.246Z" fill="#9F616A"/>
<path d="M126.872 228.16C126.872 228.16 136.85 247.493 134.979 248.117C133.108 248.74 125.625 252.482 125.625 252.482L122.195 232.837L126.872 228.16Z" fill="#575A88"/>
<path opacity="0.1" d="M126.872 228.16C126.872 228.16 136.85 247.493 134.979 248.117C133.108 248.74 125.625 252.482 125.625 252.482L122.195 232.837L126.872 228.16Z" fill="black"/>
<path d="M126.248 244.375C126.248 244.375 128.431 260.59 127.496 264.02C126.56 267.45 128.119 318.901 126.872 321.707C125.625 324.514 124.689 342.599 124.689 344.782C124.689 346.965 127.184 364.739 127.807 366.298C128.431 367.857 130.302 373.158 129.367 375.653C128.431 378.147 115.647 384.384 113.776 382.201C111.905 380.018 113.464 373.158 111.905 372.846C110.346 372.535 108.476 357.879 108.476 357.879L98.1861 300.503C98.1861 300.503 78.8542 252.482 83.2195 247.805C87.5847 243.128 126.248 244.375 126.248 244.375Z" fill="#2F2E41"/>
<path d="M114.712 133.677C123.15 133.677 129.99 126.836 129.99 118.398C129.99 109.959 123.15 103.118 114.712 103.118C106.274 103.118 99.4333 109.959 99.4333 118.398C99.4333 126.836 106.274 133.677 114.712 133.677Z" fill="#9F616A"/>
<path d="M120.324 130.871C120.324 130.871 115.335 143.967 115.959 146.774C116.583 149.58 101.304 141.785 101.304 141.785C101.304 141.785 102.24 126.505 101.304 122.451C100.369 118.398 120.324 130.871 120.324 130.871Z" fill="#9F616A"/>
<path d="M78.4302 216.189C78.4987 218.805 78.5424 220.364 78.5424 220.364C78.5424 220.364 77.607 234.708 79.166 239.386C80.725 244.063 80.7251 247.493 81.6605 250.611C81.9348 251.519 85.6672 252.005 90.9085 252.22C95.7166 252.417 101.794 252.389 107.628 252.255C117.287 252.03 126.292 251.512 127.807 251.235C131.237 250.611 127.184 245.31 128.431 242.504C129.678 239.697 126.248 203.838 126.248 203.838C126.248 203.838 126.56 183.569 125.001 175.773C123.442 167.978 117.518 155.505 116.271 153.946C115.024 152.387 115.959 151.451 118.765 149.58C121.571 147.709 118.765 140.537 118.765 140.537C113.465 136.172 100.057 135.548 100.057 135.548C100.057 135.548 79.4778 156.752 78.2306 161.118C77.4761 163.756 77.7473 184.829 78.0778 201.1C78.2056 207.221 78.3398 212.665 78.4302 216.189Z" fill="#575A88"/>
<path d="M104.734 254.977C104.734 254.977 116.583 279.299 107.228 280.858C97.8743 282.417 93.1972 258.719 93.1972 258.719L104.734 254.977Z" fill="#9F616A"/>
<path d="M128.998 110.653C129.538 108.032 127.535 105.583 125.426 103.937C120.833 100.374 115.181 98.4465 109.368 98.4603C105.279 98.4826 101.059 99.5643 97.9687 102.242C94.3638 105.365 92.7195 110.374 93.0221 115.134C93.3248 119.894 95.3949 124.409 98.1871 128.276C99.5273 130.132 101.68 132.053 103.821 131.244C104.659 130.852 105.378 130.244 105.905 129.484C107.278 127.779 108.475 125.94 109.477 123.993C110.244 122.504 110.907 120.934 111.994 119.659C113.08 118.384 114.712 117.425 116.372 117.654C117.742 117.843 119.087 118.808 120.394 118.355C121.848 117.85 122.2 115.99 122.315 114.455C122.442 112.773 122.352 110.824 122.819 109.233C123.33 109.506 128.747 111.909 128.998 110.653Z" fill="#2F2E41"/>
<path opacity="0.1" d="M78.4302 216.189C81.9224 228.784 89.9326 250.009 90.3909 250.923C90.5064 251.157 90.6871 251.615 90.9085 252.22C95.7166 252.417 101.794 252.389 107.628 252.255C106.723 249.891 105.669 247.608 105.669 246.869C105.669 245.31 98.1861 205.085 98.1861 205.085C98.1861 205.085 104.11 187.311 109.411 172.343C114.712 157.376 93.6649 160.338 93.6649 160.338C82.44 157.532 80.4132 162.365 80.4132 162.365C80.4132 162.365 79.4248 188.652 78.0778 201.1C77.7317 204.29 77.3638 206.569 76.9834 207.268C76.4845 208.181 77.158 211.618 78.4302 216.189Z" fill="black"/>
<path d="M98.1861 150.204C98.1861 150.204 112.529 156.129 107.228 171.096C101.928 186.064 96.0034 203.838 96.0034 203.838C96.0034 203.838 103.487 244.063 103.487 245.622C103.487 247.181 108.164 255.6 106.293 257.16C104.422 258.719 91.95 261.837 91.6382 260.278C91.3264 258.719 88.8319 250.923 88.2083 249.676C87.5847 248.429 72.9299 209.451 74.8007 206.02C76.1775 203.496 77.3853 180.371 77.9273 168.332C78.0526 164.897 79.0699 161.554 80.8792 158.632C82.6886 155.71 85.2275 153.309 88.2462 151.666C91.1533 150.125 94.538 149.292 98.1861 150.204Z" fill="#575A88"/>
<path d="M155.786 241.457H137.336V259.908H155.786V241.457Z" fill="#6C63FF"/>
<path d="M146.561 241.457C149.675 241.457 152.199 238.933 152.199 235.819C152.199 232.705 149.675 230.181 146.561 230.181C143.448 230.181 140.924 232.705 140.924 235.819C140.924 238.933 143.448 241.457 146.561 241.457Z" fill="#3F3D56"/>
<path d="M364.45 56.5481C379.824 56.5481 392.286 44.0844 392.286 28.7097C392.286 13.335 379.824 0.871338 364.45 0.871338C349.076 0.871338 336.613 13.335 336.613 28.7097C336.613 44.0844 349.076 56.5481 364.45 56.5481Z" fill="#FF6584"/>
<path d="M364.374 47.7244C364.374 68.7284 351.889 76.0622 336.487 76.0622C321.085 76.0622 308.599 68.7284 308.599 47.7244C308.599 26.7204 336.487 0 336.487 0C336.487 0 364.374 26.7204 364.374 47.7244Z" fill="#EDECEC"/>
<path d="M335.471 72.8491L335.756 55.2707L347.643 33.5238L335.801 52.5132L335.929 44.6095L344.122 28.8757L335.964 42.5178L336.194 28.3021L344.967 15.7758L336.231 26.0665L336.375 0L335.468 34.5074L335.543 33.0836L326.624 19.4312L335.4 35.8164L334.569 51.6932L334.544 51.2714L324.262 36.904L334.513 52.7603L334.409 54.7458L334.39 54.7756L334.399 54.9386L332.291 95.2186H335.107L335.446 74.4133L345.671 58.596L335.471 72.8491Z" fill="#3F3D56"/>
<path d="M431.572 79.1187C424.908 99.0375 410.741 102.031 396.135 97.1436C381.529 92.2565 372.015 81.3399 378.679 61.4211C385.342 41.5023 420.266 25.0114 420.266 25.0114C420.266 25.0114 438.236 59.2 431.572 79.1187Z" fill="#EDECEC"/>
<path d="M396.191 93.7743L402.039 77.1949L420.21 60.3427L402.956 74.5938L405.586 67.139L418.346 54.8176L406.281 65.1662L411.01 51.7583L423.303 42.6629L411.754 49.6497L420.161 24.9758L408.353 57.4126L408.875 56.0862L404.749 40.3093L407.872 58.6324L402.047 73.4252L402.158 73.0177L396.965 56.1302L401.656 74.4195L400.927 76.2692L400.9 76.2918L400.857 76.4491L386.078 113.979L388.749 114.873L395.671 95.2494L410.386 83.4939L396.191 93.7743Z" fill="#3F3D56"/>
<path d="M293.146 63.0913C300.7 82.6899 291.687 94.0237 277.315 99.5632C262.944 105.103 248.656 102.75 241.103 83.1515C233.549 63.5529 249.962 28.5901 249.962 28.5901C249.962 28.5901 285.593 43.4926 293.146 63.0913Z" fill="#EDECEC"/>
<path d="M275.212 96.9305L269.157 80.4253L272.427 55.8585L268.207 77.8365L265.484 70.415L267.47 52.7874L264.764 68.451L259.867 55.1036L263.548 40.2606L259.097 53.0047L249.858 28.6301L261.421 61.155L260.979 59.7999L247.747 50.2683L261.828 62.401L266.762 77.5141L266.587 77.1297L251.827 67.4218L267.094 78.53L267.711 80.4202L267.704 80.4545L267.771 80.6037L280.289 118.947L282.917 117.934L275.75 98.3989L279.604 79.9625L275.212 96.9305Z" fill="#3F3D56"/>
<path d="M233.919 229.617C232.191 232.374 229.949 232.309 227.927 231.042C225.906 229.775 224.87 227.785 226.598 225.028C228.326 222.272 234.185 221.059 234.185 221.059C234.185 221.059 235.647 226.861 233.919 229.617Z" fill="#6C63FF"/>
<path d="M440.011 147.001C440.331 150.238 438.518 151.559 436.143 151.794C433.769 152.028 431.733 151.088 431.413 147.85C431.093 144.612 434.985 140.069 434.985 140.069C434.985 140.069 439.691 143.763 440.011 147.001Z" fill="#6C63FF"/>
<path d="M224.726 170.908C222.998 173.665 220.756 173.6 218.735 172.333C216.713 171.066 215.678 169.076 217.406 166.319C219.134 163.562 224.992 162.35 224.992 162.35C224.992 162.35 226.454 168.152 224.726 170.908Z" fill="#6C63FF"/>
</g>
<defs>
<clipPath id="clip0_2016_181">
<rect width="554" height="402" fill="white"/>
</clipPath>
</defs>
</svg>
