<svg width="213" height="60" viewBox="0 0 213 60" fill="none" xmlns="http://www.w3.org/2000/svg">
<g id="Group 401">
<path id="Vector" fill-rule="evenodd" clip-rule="evenodd" d="M105.236 7.12171C107.289 5.05676 110.617 5.05676 112.67 7.12171C114.722 9.1868 114.722 12.5349 112.67 14.6L100.154 27.1901C96.5608 22.3456 96.9512 15.4557 101.325 11.0556L105.236 7.12171Z" fill="#4F9E91"/>
<path id="Vector_2" fill-rule="evenodd" clip-rule="evenodd" d="M123.127 35.5269C125.181 37.5919 125.181 40.9401 123.127 43.005C121.076 45.0701 117.747 45.0701 115.694 43.005L103.179 30.4151C107.994 26.8004 114.843 27.1929 119.217 31.593L123.127 35.5269Z" fill="#EBE1C5"/>
<path id="Vector_3" fill-rule="evenodd" clip-rule="evenodd" d="M94.8906 53.5261C92.8379 55.5912 89.5095 55.5912 87.4568 53.5261C85.4039 51.461 85.4039 48.1129 87.4568 46.0478L99.9721 33.4579C103.565 38.3023 103.175 45.1922 98.8012 49.5922L94.8906 53.5261Z" fill="#EBCC6E"/>
<path id="Vector_4" fill-rule="evenodd" clip-rule="evenodd" d="M76.9986 25.1199C74.9458 23.0549 74.9458 19.7068 76.9986 17.6417C79.0515 15.5766 82.3797 15.5766 84.4326 17.6417L96.9481 30.2318C92.1323 33.8465 85.2831 33.4538 80.9092 29.0539L76.9986 25.1199Z" fill="#ED834E"/>
<path id="Vector_5" fill-rule="evenodd" clip-rule="evenodd" d="M102.439 51.984C105.466 48.5984 106.873 44.2663 106.659 40.001L112.67 46.0475C112.685 46.0625 112.7 46.0775 112.715 46.0926V50.4094C112.715 53.3298 110.362 55.6972 107.458 55.6972C105.1 55.6972 103.105 54.1354 102.439 51.984Z" fill="#ED834E"/>
<path id="Vector_6" fill-rule="evenodd" clip-rule="evenodd" d="M78.5315 32.7134C81.8968 35.7586 86.2033 37.1738 90.4433 36.9591L84.4328 43.0056C84.4177 43.0206 84.4028 43.0358 84.388 43.0508H80.0968C77.1937 43.051 74.8402 40.6833 74.8402 37.7629C74.8402 35.391 76.3928 33.3837 78.5315 32.7134Z" fill="#4F9E91"/>
<path id="Vector_7" fill-rule="evenodd" clip-rule="evenodd" d="M121.595 27.9348C118.23 24.8897 113.923 23.4744 109.683 23.689L115.694 17.6426C115.709 17.6276 115.724 17.6124 115.739 17.5973H120.03C122.934 17.5973 125.287 19.9649 125.287 22.8853C125.287 25.2574 123.734 27.2646 121.595 27.9348Z" fill="#EBCC6E"/>
<path id="Vector_8" fill-rule="evenodd" clip-rule="evenodd" d="M97.6878 8.66364C94.6607 12.0491 93.254 16.3812 93.4673 20.6466L87.4568 14.6002C87.4417 14.5851 87.4268 14.5701 87.4117 14.5551V10.2383C87.4117 7.31787 89.7651 4.95026 92.6682 4.95026C95.0262 4.95026 97.0216 6.51224 97.6878 8.66364Z" fill="#EBE1C5"/>
<path id="Vector_9" fill-rule="evenodd" clip-rule="evenodd" d="M92.6684 0.648315C87.4033 0.648315 83.135 4.94204 83.135 10.2385V12.1038C79.9674 11.2712 76.4569 12.1034 73.9747 14.6004C70.2516 18.3457 70.2516 24.4179 73.9747 28.1631L75.2857 29.4819C72.4607 31.1465 70.5634 34.2319 70.5634 37.7632C70.5634 43.0597 74.8317 47.3534 80.0968 47.3534H81.9509C81.1233 50.5399 81.9504 54.0713 84.4327 56.5682C88.1558 60.3134 94.192 60.3134 97.915 56.5682L101.825 52.6344C105.275 49.1642 106.886 44.5447 106.659 40.0012L112.67 46.0476C116.393 49.7929 122.429 49.7929 126.152 46.0476C129.876 42.3024 129.876 36.2302 126.152 32.4851L124.842 31.1664C127.666 29.5019 129.563 26.4165 129.563 22.8852C129.563 17.5887 125.294 13.295 120.03 13.295H118.176C119.003 10.1083 118.176 6.57694 115.694 4.07987C111.971 0.334636 105.935 0.334636 102.212 4.07987L98.3011 8.01379C94.8514 11.484 93.2403 16.1033 93.4676 20.6469L87.457 14.6004C87.4419 14.5854 87.4269 14.5704 87.4119 14.5553V10.2385C87.4119 7.31813 89.7653 4.95067 92.6684 4.95067C95.0264 4.95067 97.0217 6.51251 97.688 8.66391C97.8854 8.44308 98.0897 8.22628 98.301 8.01379L100.901 5.39872C99.2459 2.55687 96.1787 0.648315 92.6684 0.648315ZM115.739 17.5973C115.724 17.6123 115.709 17.6275 115.694 17.6426L109.683 23.6889C113.924 23.4743 118.23 24.8894 121.595 27.9347C123.734 27.2645 125.287 25.2571 125.287 22.8852C125.287 19.9648 122.934 17.5973 120.03 17.5973H115.739ZM84.3878 43.051C84.4027 43.0359 84.4176 43.0207 84.4327 43.0056L90.4432 36.9592C86.2032 37.1739 81.8969 35.7586 78.5315 32.7137C76.3929 33.3839 74.8402 35.3911 74.8402 37.7632C74.8402 40.6836 77.1937 43.051 80.0968 43.051H84.3878ZM78.3676 32.5634C78.2045 32.4117 78.0437 32.2562 77.8853 32.0969V32.097C78.0437 32.2564 78.2045 32.4117 78.3676 32.5634ZM107.458 60C103.948 60 100.881 58.0913 99.2261 55.2495L101.825 52.6344C102.037 52.4219 102.241 52.2051 102.439 51.9843C103.105 54.1357 105.1 55.6977 107.458 55.6977C110.361 55.6977 112.715 53.3302 112.715 50.4098V46.093C113.947 47.316 115.427 48.1333 116.992 48.5444V50.4098C116.992 55.7063 112.723 60 107.458 60ZM112.67 7.12201C110.617 5.05706 107.289 5.05706 105.236 7.12201L101.325 11.0559C96.9513 15.456 96.561 22.3459 100.154 27.1904L112.67 14.6003C114.723 12.5352 114.723 9.1871 112.67 7.12201ZM123.127 43.0055C125.181 40.9404 125.181 37.5923 123.127 35.5272L119.217 31.5933C114.843 27.1934 107.994 26.8007 103.178 30.4154L115.694 43.0055C117.747 45.0706 121.076 45.0706 123.127 43.0055ZM94.8908 53.526C92.8379 55.5911 89.5097 55.5911 87.4568 53.526C85.4041 51.461 85.4041 48.1129 87.4568 46.0478L99.9723 33.4577C103.566 38.3021 103.175 45.1922 98.8014 49.5921L94.8908 53.526ZM76.9988 17.6426C74.9461 19.7076 74.9461 23.0557 76.9988 25.1208L80.9094 29.0547C85.2834 33.4547 92.1325 33.8474 96.9482 30.2327L84.4327 17.6426C82.3799 15.5776 79.0516 15.5776 76.9988 17.6426Z" fill="#3D3A2C"/>
<path id="Vector_10" d="M0 20.0413H4.67521V34.6556H12.705V38.6146H0V20.0413Z" fill="white"/>
<path id="Vector_11" d="M21.1937 39.0133C19.6265 39.0133 18.2529 38.7298 17.0731 38.163C15.8933 37.5783 14.9776 36.7812 14.326 35.7716C13.6922 34.7441 13.3752 33.5662 13.3752 32.2375C13.3752 30.909 13.6922 29.7398 14.326 28.7302C14.9776 27.7027 15.8933 26.9056 17.0731 26.3388C18.2529 25.7541 19.6265 25.4619 21.1937 25.4619C22.761 25.4619 24.1344 25.7541 25.3142 26.3388C26.4941 26.9056 27.401 27.7027 28.0348 28.7302C28.6864 29.7398 29.0121 30.909 29.0121 32.2375C29.0121 33.5662 28.6864 34.7441 28.0348 35.7716C27.401 36.7812 26.4941 37.5783 25.3142 38.163C24.1344 38.7298 22.761 39.0133 21.1937 39.0133ZM21.1937 35.3729C22.127 35.3729 22.8666 35.0984 23.4124 34.5493C23.976 33.9824 24.2576 33.2119 24.2576 32.2375C24.2576 31.2633 23.976 30.5016 23.4124 29.9525C22.8666 29.3855 22.127 29.1022 21.1937 29.1022C20.2603 29.1022 19.512 29.3855 18.9486 29.9525C18.4026 30.5016 18.1297 31.2633 18.1297 32.2375C18.1297 33.2119 18.4026 33.9824 18.9486 34.5493C19.512 35.0984 20.2603 35.3729 21.1937 35.3729Z" fill="white"/>
<path id="Vector_12" d="M37.7443 44.7261C36.8991 44.7261 36.045 44.6464 35.1821 44.487C34.3369 44.3275 33.606 44.115 32.9898 43.8492V40.6075C34.3808 41.2097 35.9657 41.5109 37.7443 41.5109C39.0297 41.5109 39.9542 41.2452 40.5177 40.7138C41.0988 40.1824 41.3894 39.403 41.3894 38.3755V37.605C40.8787 38.0478 40.2447 38.3932 39.4875 38.6412C38.7479 38.8893 37.9555 39.0133 37.1103 39.0133C35.772 39.0133 34.5922 38.7298 33.5708 38.163C32.5496 37.5961 31.7483 36.7989 31.1672 35.7716C30.6037 34.7441 30.322 33.5662 30.322 32.2375C30.322 30.8913 30.6037 29.7044 31.1672 28.6771C31.7307 27.6496 32.5231 26.8612 33.5445 26.3121C34.5657 25.7454 35.7368 25.4619 37.0575 25.4619C38.8713 25.4619 40.368 26.0199 41.5478 27.1359V25.8604H46.0382V37.7379C46.0382 39.9521 45.3602 41.6704 44.0043 42.8927C42.6661 44.115 40.5793 44.7261 37.7443 44.7261ZM38.2725 35.3996C38.9945 35.3996 39.6372 35.2136 40.2007 34.8416C40.7642 34.4695 41.1604 33.9736 41.3894 33.3535V31.1216C41.1428 30.5016 40.7378 30.0144 40.1743 29.6601C39.6108 29.2882 38.9769 29.1022 38.2725 29.1022C37.3217 29.1022 36.5556 29.3855 35.9745 29.9525C35.3934 30.5016 35.1028 31.2544 35.1028 32.211C35.1028 33.1852 35.3934 33.9647 35.9745 34.5493C36.5556 35.1161 37.3217 35.3996 38.2725 35.3996Z" fill="white"/>
<path id="Vector_13" d="M55.0361 39.0133C53.4689 39.0133 52.0955 38.7298 50.9156 38.163C49.7358 37.5783 48.82 36.7812 48.1686 35.7716C47.5346 34.7441 47.2176 33.5662 47.2176 32.2375C47.2176 30.909 47.5346 29.7398 48.1686 28.7302C48.82 27.7027 49.7358 26.9056 50.9156 26.3388C52.0955 25.7541 53.4689 25.4619 55.0361 25.4619C56.6034 25.4619 57.9768 25.7541 59.1566 26.3388C60.3365 26.9056 61.2434 27.7027 61.8774 28.7302C62.5288 29.7398 62.8547 30.909 62.8547 32.2375C62.8547 33.5662 62.5288 34.7441 61.8774 35.7716C61.2434 36.7812 60.3365 37.5783 59.1566 38.163C57.9768 38.7298 56.6034 39.0133 55.0361 39.0133ZM55.0361 35.3729C55.9694 35.3729 56.709 35.0984 57.255 34.5493C57.8184 33.9824 58.1002 33.2119 58.1002 32.2375C58.1002 31.2633 57.8184 30.5016 57.255 29.9525C56.709 29.3855 55.9694 29.1022 55.0361 29.1022C54.1029 29.1022 53.3544 29.3855 52.791 29.9525C52.245 30.5016 51.9721 31.2633 51.9721 32.2375C51.9721 33.2119 52.245 33.9824 52.791 34.5493C53.3544 35.0984 54.1029 35.3729 55.0361 35.3729Z" fill="white"/>
<path id="Vector_14" d="M137.418 20.0413H142.094V38.6146H137.418V20.0413Z" fill="white"/>
<path id="Vector_15" d="M144.461 25.8604H148.952V27.1359C150.131 26.0199 151.627 25.4619 153.441 25.4619C154.762 25.4619 155.933 25.7454 156.954 26.3121C157.976 26.8612 158.768 27.6496 159.331 28.6771C159.895 29.6867 160.177 30.8648 160.177 32.211C160.177 33.5395 159.895 34.7264 159.331 35.7716C158.768 36.7989 157.976 37.5961 156.954 38.163C155.951 38.7298 154.78 39.0133 153.441 39.0133C152.596 39.0133 151.786 38.8804 151.012 38.6146C150.255 38.3667 149.62 38.0212 149.11 37.5783V44.4337H144.461V25.8604ZM152.227 35.3729C153.178 35.3729 153.944 35.0896 154.524 34.5227C155.105 33.9559 155.397 33.1852 155.397 32.211C155.397 31.2366 155.105 30.4751 154.524 29.9258C153.944 29.359 153.178 29.0756 152.227 29.0756C151.522 29.0756 150.888 29.2616 150.324 29.6336C149.761 29.9879 149.357 30.4751 149.11 31.095V33.3535C149.357 33.9736 149.761 34.4695 150.324 34.8416C150.888 35.1959 151.522 35.3729 152.227 35.3729Z" fill="white"/>
<path id="Vector_16" d="M167.107 39.0133C166.087 39.0133 165.022 38.907 163.912 38.6944C162.803 38.4996 161.921 38.2161 161.27 37.8441V34.4164C161.992 34.8416 162.855 35.1959 163.859 35.4793C164.88 35.7449 165.813 35.8778 166.659 35.8778C167.274 35.8778 167.724 35.8335 168.005 35.7449C168.288 35.6564 168.428 35.4793 168.428 35.2136C168.428 35.0009 168.332 34.8326 168.138 34.7087C167.962 34.567 167.627 34.4252 167.134 34.2835C166.659 34.1242 166.104 33.9559 165.47 33.7787C164.396 33.4598 163.551 33.1321 162.934 32.7955C162.318 32.4589 161.861 32.0338 161.56 31.5201C161.261 31.0064 161.112 30.3599 161.112 29.5805C161.112 28.1987 161.649 27.1713 162.723 26.4981C163.815 25.8073 165.303 25.4619 167.187 25.4619C168.103 25.4619 169.063 25.5593 170.066 25.7541C171.088 25.9491 171.853 26.2059 172.364 26.5248V29.8993C171.836 29.545 171.131 29.2526 170.251 29.0224C169.388 28.7921 168.578 28.6771 167.82 28.6771C167.223 28.6771 166.755 28.739 166.421 28.8629C166.087 28.9693 165.92 29.1641 165.92 29.4476C165.92 29.7133 166.087 29.9171 166.421 30.0587C166.755 30.2004 167.354 30.3776 168.217 30.5901C168.78 30.7319 169.018 30.7938 168.93 30.7761C170.057 31.0773 170.928 31.4139 171.545 31.7859C172.162 32.1579 172.592 32.6007 172.839 33.1144C173.104 33.6104 173.236 34.2481 173.236 35.0276C173.236 36.2498 172.708 37.224 171.651 37.9504C170.612 38.659 169.097 39.0133 167.107 39.0133Z" fill="white"/>
<path id="Vector_17" d="M180.176 39.0134C178.434 39.0134 177.122 38.5262 176.242 37.552C175.379 36.5776 174.947 35.2935 174.947 33.6992V25.8605H179.596V33.1677C179.596 34.638 180.256 35.3731 181.577 35.3731C182.176 35.3731 182.722 35.2314 183.215 34.948C183.707 34.6645 184.112 34.2483 184.429 33.6992V25.8605H189.078V38.6148H184.589V37.2331C184.043 37.8176 183.382 38.2605 182.607 38.5616C181.833 38.8628 181.022 39.0134 180.176 39.0134Z" fill="white"/>
<path id="Vector_18" d="M191.458 25.8604H195.765V27.2422C196.293 26.6754 196.901 26.2413 197.587 25.9401C198.273 25.6213 199.004 25.4619 199.779 25.4619C200.73 25.4619 201.488 25.6035 202.051 25.887C202.633 26.1705 203.098 26.5956 203.451 27.1624C203.979 26.631 204.622 26.2147 205.379 25.9137C206.137 25.6125 206.903 25.4619 207.677 25.4619C209.35 25.4619 210.539 25.8959 211.243 26.7639C211.947 27.6142 212.299 28.8452 212.299 30.4572V38.6146H207.862V31.1216C207.862 30.413 207.73 29.8993 207.465 29.5805C207.202 29.2616 206.761 29.1022 206.146 29.1022C205.353 29.1022 204.709 29.3855 204.217 29.9525C204.234 30.2535 204.243 30.7142 204.243 31.3341V38.6146H199.806V30.9356C199.806 30.2801 199.692 29.8107 199.463 29.5273C199.233 29.2439 198.828 29.1022 198.248 29.1022C197.349 29.1022 196.575 29.6069 195.923 30.6167V38.6146H191.458V25.8604Z" fill="white"/>
</g>
</svg>
