<svg width="295" height="60" viewBox="0 0 295 60" fill="none" xmlns="http://www.w3.org/2000/svg">
<path d="M41.8181 49.77L2.33861 22.3748C-1.66215 19.5987 -0.302154 13.8186 4.6867 12.4593L46.6463 1.00314C47.5351 0.680506 48.4876 0.575775 49.4248 0.697642C50.3619 0.819508 51.2566 1.16446 52.0347 1.70386C52.8127 2.24326 53.4517 2.96156 53.8985 3.79914C54.3453 4.63671 54.5871 5.56942 54.6038 6.51983L52.1171 45.3691C51.8222 49.9803 45.8188 52.5461 41.8181 49.77Z" fill="#E9327C"/>
<path d="M29.2964 56.5326L6.03784 10.7765C5.50618 9.7297 5.27222 8.55556 5.36177 7.38353C5.45132 6.2115 5.86089 5.08711 6.54532 4.13437C7.22975 3.18162 8.16245 2.43754 9.24056 1.98416C10.3187 1.53079 11.5003 1.38575 12.6552 1.56502L55.7591 8.25721C56.7515 8.4113 57.6933 8.80015 58.5072 9.39178C59.3211 9.98341 59.9838 10.7609 60.4407 11.6604C60.8977 12.5599 61.1359 13.5556 61.1357 14.5657C61.1355 15.5759 60.8971 16.5715 60.4398 17.4709L40.5835 56.5348C40.0503 57.5786 39.2414 58.4543 38.2456 59.0656C37.2498 59.6769 36.1058 60.0002 34.9393 60C33.7727 59.9998 32.6288 59.676 31.6333 59.0643C30.6378 58.4526 29.8292 57.5766 29.2964 56.5326V56.5326Z" fill="#1DACE3"/>
<path d="M54.4982 8.06065L33.0111 4.72452L6.62985 11.9303L17.1599 32.6533L41.8181 49.7701C42.3621 50.1434 42.9605 50.4295 43.5918 50.6179L52.9577 32.1928L54.4982 8.06065Z" fill="#3A68B8"/>
<path d="M163.335 13.4088C163.335 12.6054 163.572 11.82 164.016 11.1519C164.459 10.4839 165.09 9.96324 165.828 9.65578C166.566 9.34831 167.378 9.26787 168.161 9.42462C168.944 9.58136 169.664 9.96825 170.229 10.5364C170.793 11.1045 171.178 11.8283 171.334 12.6163C171.49 13.4043 171.41 14.2211 171.104 14.9634C170.798 15.7056 170.281 16.3401 169.617 16.7864C168.953 17.2328 168.172 17.471 167.373 17.471C166.306 17.4601 165.285 17.0286 164.53 16.2691C163.775 15.5097 163.346 14.4828 163.335 13.4088V13.4088ZM164.008 19.4568H170.74V42.0238H164.008V19.4568Z" fill="white"/>
<path d="M199.81 30.7405C199.889 32.2321 199.673 33.7246 199.176 35.1321C198.678 36.5396 197.91 37.8343 196.913 38.9418C195.917 40.0492 194.713 40.9476 193.37 41.5852C192.027 42.2229 190.572 42.5872 189.089 42.6572C187.841 42.7255 186.594 42.5138 185.438 42.0375C184.282 41.5612 183.245 40.8322 182.403 39.9032V51.0517H175.674V19.457H182.403V21.5778C183.245 20.6492 184.282 19.9206 185.438 19.4447C186.594 18.9688 187.841 18.7575 189.089 18.8261C190.572 18.8958 192.027 19.2598 193.37 19.8972C194.712 20.5346 195.917 21.4328 196.913 22.5401C197.909 23.6474 198.678 24.9419 199.176 26.3493C199.673 27.7566 199.889 29.249 199.81 30.7405ZM193.081 30.7405C193.054 29.6839 192.719 28.6586 192.116 27.793C191.513 26.9273 190.67 26.2598 189.692 25.8738C188.714 25.4878 187.644 25.4006 186.617 25.6231C185.59 25.8456 184.651 26.3679 183.918 27.1246C183.184 27.8814 182.689 28.8389 182.494 29.8774C182.298 30.9159 182.412 31.9893 182.82 32.9631C183.229 33.937 183.913 34.7681 184.789 35.3525C185.664 35.9368 186.691 36.2484 187.742 36.2483C188.464 36.281 189.184 36.1598 189.855 35.8927C190.527 35.6256 191.135 35.2186 191.639 34.6985C192.143 34.1783 192.532 33.5568 192.781 32.8746C193.029 32.1925 193.132 31.4652 193.081 30.7405V30.7405Z" fill="white"/>
<path d="M220.583 35.25C220.583 40.4412 216.096 42.6528 211.25 42.6528C209.292 42.831 207.327 42.4142 205.607 41.4564C203.888 40.4985 202.493 39.0437 201.605 37.28L207.436 33.9416C207.673 34.7569 208.181 35.4655 208.876 35.9491C209.57 36.4326 210.408 36.6617 211.25 36.5982C212.865 36.5982 213.671 36.1001 213.671 35.1991C213.671 32.7152 202.634 34.0258 202.634 26.2156C202.634 21.2967 206.761 18.815 211.437 18.815C213.191 18.7597 214.928 19.1784 216.466 20.0275C218.005 20.8767 219.289 22.1253 220.185 23.6432L214.443 26.758C214.192 26.1656 213.773 25.6607 213.238 25.3064C212.704 24.9521 212.077 24.764 211.437 24.7656C210.271 24.7656 209.553 25.2084 209.553 26.0297C209.547 28.6198 220.583 26.9041 220.583 35.25Z" fill="white"/>
<path d="M245.179 19.4566V42.0236H238.449V39.8984C237.672 40.8346 236.685 41.5722 235.57 42.0509C234.454 42.5296 233.242 42.7357 232.032 42.6523C227.501 42.6523 223.644 39.4025 223.644 33.3081V19.4566H230.373V32.3207C230.316 32.8586 230.377 33.4024 230.551 33.9143C230.724 34.4262 231.007 34.8939 231.378 35.2848C231.75 35.6757 232.202 35.9804 232.702 36.1777C233.203 36.375 233.74 36.4602 234.277 36.4272C236.744 36.4272 238.458 34.9839 238.458 31.7783V19.4566H245.179Z" fill="white"/>
<path d="M283.752 28.1652V42.0233H277.022V28.754C277.022 26.4982 275.944 25.0526 273.792 25.0526C271.547 25.0526 270.293 26.6333 270.293 29.2964V42.0233H263.561V28.754C263.561 26.4982 262.485 25.0526 260.331 25.0526C258.088 25.0526 256.832 26.6333 256.832 29.2964V42.0233H250.102V19.4563H256.843V21.5239C257.54 20.6032 258.456 19.8731 259.506 19.4001C260.556 18.9271 261.708 18.7265 262.855 18.8165C264.007 18.7598 265.154 19.0043 266.184 19.5261C267.214 20.0479 268.092 20.8293 268.733 21.794C269.479 20.7846 270.467 19.982 271.605 19.4613C272.743 18.9405 273.994 18.7187 275.24 18.8165C280.389 18.8253 283.752 22.5245 283.752 28.1652Z" fill="white"/>
<path d="M289.454 19.3171C292.213 19.3171 294.449 17.0672 294.449 14.2918C294.449 11.5165 292.213 9.2666 289.454 9.2666C286.695 9.2666 284.458 11.5165 284.458 14.2918C284.458 17.0672 286.695 19.3171 289.454 19.3171Z" fill="white"/>
<path d="M71.4542 9.07635H78.1859V42.0237H71.4542V9.07635ZM81.9974 30.7402C81.99 28.3743 82.6807 26.0593 83.9819 24.0885C85.2832 22.1177 87.1365 20.5796 89.3073 19.6691C91.478 18.7585 93.8686 18.5164 96.1762 18.9734C98.4838 19.4304 100.605 20.566 102.27 22.2363C103.936 23.9066 105.072 26.0366 105.533 28.3565C105.995 30.6764 105.762 33.082 104.863 35.2685C103.965 37.4551 102.442 39.3243 100.487 40.6395C98.5318 41.9548 96.2328 42.6568 93.8809 42.6569C92.3188 42.6737 90.7691 42.3772 89.3223 41.7847C87.8754 41.1923 86.5604 40.3158 85.454 39.2063C84.3477 38.0969 83.4722 36.7768 82.8787 35.3232C82.2852 33.8696 81.9856 32.3116 81.9974 30.7402V30.7402ZM99.048 30.7402C99.0216 29.7196 98.6966 28.7295 98.1138 27.8938C97.5309 27.058 96.716 26.4137 95.7711 26.0414C94.8261 25.6692 93.793 25.5854 92.8009 25.8007C91.8089 26.016 90.902 26.5208 90.1937 27.2519C89.4853 27.983 89.007 28.908 88.8185 29.9111C88.63 30.9143 88.7398 31.951 89.134 32.8918C89.5282 33.8325 90.1894 34.6354 91.0349 35.2001C91.8804 35.7648 92.8726 36.0661 93.8875 36.0665C94.5824 36.0864 95.2739 35.9613 95.9184 35.699C96.5629 35.4367 97.1463 35.0429 97.632 34.5425C98.1177 34.0421 98.495 33.4459 98.7402 32.7914C98.9855 32.137 99.0932 31.4386 99.0568 30.7402H99.048ZM132.606 19.45V40.8903C132.606 48.4724 126.728 51.6757 120.762 51.6757C118.662 51.8352 116.559 51.4099 114.683 50.4466C112.807 49.4832 111.231 48.019 110.128 46.2144L115.87 42.8738C116.333 43.8157 117.071 44.5927 117.986 45.1011C118.9 45.6094 119.947 45.8248 120.986 45.7185C121.649 45.8096 122.325 45.7497 122.962 45.5433C123.599 45.3368 124.182 44.989 124.668 44.5256C125.154 44.0622 125.53 43.495 125.769 42.8658C126.008 42.2366 126.103 41.5615 126.048 40.8903V38.8138C125.259 39.7835 124.256 40.554 123.118 41.0634C121.981 41.5727 120.74 41.8069 119.496 41.747C116.535 41.6544 113.726 40.4061 111.664 38.2662C109.602 36.1264 108.449 33.2633 108.449 30.2831C108.449 27.3028 109.602 24.4397 111.664 22.2999C113.726 20.1601 116.535 18.9117 119.496 18.8191C120.74 18.7592 121.981 18.9934 123.118 19.5027C124.256 20.0121 125.259 20.7826 126.048 21.7523V19.45H132.606ZM126.056 30.2819C126.101 29.192 125.82 28.1136 125.25 27.1854C124.68 26.2572 123.848 25.5217 122.859 25.0734C121.87 24.6251 120.771 24.4845 119.702 24.6698C118.634 24.855 117.645 25.3576 116.862 26.1128C116.08 26.8681 115.54 27.8416 115.311 28.908C115.083 29.9745 115.178 31.0853 115.582 32.0975C115.986 33.1097 116.682 33.977 117.581 34.5881C118.479 35.1991 119.539 35.5259 120.623 35.5263C121.33 35.5763 122.04 35.4769 122.706 35.2345C123.373 34.992 123.982 34.6119 124.493 34.1186C125.005 33.6252 125.409 33.0296 125.678 32.37C125.947 31.7103 126.076 31.0013 126.056 30.2886V30.2819ZM136.417 30.7247C136.41 28.3588 137.1 26.0438 138.402 24.073C139.703 22.1022 141.556 20.5641 143.727 19.6536C145.898 18.743 148.288 18.5009 150.596 18.9579C152.903 19.4149 155.024 20.5505 156.69 22.2208C158.356 23.8911 159.491 26.0211 159.953 28.341C160.414 30.6609 160.181 33.0665 159.283 35.253C158.385 37.4396 156.861 39.3088 154.906 40.624C152.951 41.9393 150.652 42.6413 148.3 42.6414C146.74 42.6581 145.191 42.3622 143.745 41.7707C142.3 41.1792 140.985 40.304 139.879 39.1963C138.773 38.0885 137.897 36.7703 137.303 35.3184C136.708 33.8666 136.407 32.3103 136.417 30.7402V30.7247ZM153.468 30.7247C153.442 29.7035 153.117 28.7127 152.534 27.8762C151.951 27.0398 151.136 26.3948 150.19 26.0221C149.245 25.6494 148.211 25.5654 147.218 25.7807C146.226 25.996 145.318 26.5011 144.609 27.2326C143.901 27.9642 143.422 28.8898 143.234 29.8935C143.045 30.8973 143.155 31.9347 143.55 32.876C143.944 33.8172 144.606 34.6204 145.452 35.1852C146.299 35.7499 147.292 36.0511 148.307 36.051C149 36.0695 149.689 35.9439 150.331 35.682C150.974 35.4201 151.555 35.0275 152.04 34.5289C152.524 34.0303 152.901 33.4365 153.147 32.7845C153.393 32.1325 153.502 31.4366 153.468 30.7402V30.7247Z" fill="white"/>
</svg>
